<?xml version="1.0" encoding="utf-8" standalone="no"?>
<!DOCTYPE svg PUBLIC "-//W3C//DTD SVG 1.1//EN"
  "http://www.w3.org/Graphics/SVG/1.1/DTD/svg11.dtd">
<svg xmlns:xlink="http://www.w3.org/1999/xlink" width="708.490969pt" height="338.4pt" viewBox="0 0 708.490969 338.4" xmlns="http://www.w3.org/2000/svg" version="1.1">
 <metadata>
  <rdf:RDF xmlns:dc="http://purl.org/dc/elements/1.1/" xmlns:cc="http://creativecommons.org/ns#" xmlns:rdf="http://www.w3.org/1999/02/22-rdf-syntax-ns#">
   <cc:Work>
    <dc:type rdf:resource="http://purl.org/dc/dcmitype/StillImage"/>
    <dc:date>2026-07-06T09:36:34.414951</dc:date>
    <dc:format>image/svg+xml</dc:format>
    <dc:creator>
     <cc:Agent>
      <dc:title>Matplotlib v3.10.8, https://matplotlib.org/</dc:title>
     </cc:Agent>
    </dc:creator>
   </cc:Work>
  </rdf:RDF>
 </metadata>
 <defs>
  <style type="text/css">*{stroke-linejoin: round; stroke-linecap: butt}</style>
 </defs>
 <g id="figure_1">
  <g id="patch_1">
   <path d="M 0 338.4 
L 708.490969 338.4 
L 708.490969 0 
L 0 0 
z
" style="fill: #ffffff"/>
  </g>
  <g id="axes_1">
   <g id="patch_2">
    <path d="M 45.729 88.2 
L 209.47725 140.04 
L 215.89875 114.12 
L 53.4348 62.28 
z
" clip-path="url(#pc6c9783267)" style="fill: #dbeafe; stroke: #1e3a8a; stroke-width: 1.8; stroke-linejoin: miter"/>
   </g>
   <g id="patch_3">
    <path d="M 45.729 250.2 
L 209.47725 198.36 
L 215.89875 224.28 
L 53.4348 276.12 
z
" clip-path="url(#pc6c9783267)" style="fill: #dcfce7; stroke: #166534; stroke-width: 1.8; stroke-linejoin: miter"/>
   </g>
   <g id="patch_4">
    <path d="M 203.05575 198.36 
L 283.3245 198.36 
L 283.3245 140.04 
L 203.05575 140.04 
z
" clip-path="url(#pc6c9783267)" style="fill: #f8fafc; stroke: #0f172a; stroke-width: 2; stroke-linejoin: miter"/>
   </g>
   <g id="patch_5">
    <path d="M 283.3245 198.36 
L 456.705 282.6 
L 456.705 55.8 
L 283.3245 140.04 
z
" clip-path="url(#pc6c9783267)" style="fill: #f1f5f9; stroke: #0f172a; stroke-width: 2; stroke-linejoin: miter"/>
   </g>
   <g id="patch_6">
    <path d="M 456.705 114.12 
L 610.821 62.28 
L 604.3995 36.36 
L 456.705 55.8 
z
" clip-path="url(#pc6c9783267)" style="fill: #fee2e2; stroke: #991b1b; stroke-width: 1.8; stroke-linejoin: miter"/>
   </g>
   <g id="patch_7">
    <path d="M 456.705 224.28 
L 610.821 276.12 
L 604.3995 302.04 
L 456.705 282.6 
z
" clip-path="url(#pc6c9783267)" style="fill: #fef3c7; stroke: #92400e; stroke-width: 1.8; stroke-linejoin: miter"/>
   </g>
   <g id="patch_8">
    <path d="M 79.671942 79.273784 
Q 122.786924 97.919967 164.260018 115.856074 
" clip-path="url(#pc6c9783267)" style="fill: none; stroke: #334155; stroke-width: 1.6; stroke-linecap: round"/>
    <path d="M 159.080553 109.693839 
L 164.260018 115.856074 
L 156.222551 116.302306 
z
" clip-path="url(#pc6c9783267)" style="fill: #334155; stroke: #334155; stroke-width: 1.6; stroke-linecap: round"/>
   </g>
   <g id="patch_9">
    <path d="M 79.671942 259.126216 
Q 122.786924 240.480033 164.260018 222.543926 
" clip-path="url(#pc6c9783267)" style="fill: none; stroke: #334155; stroke-width: 1.6; stroke-linecap: round"/>
    <path d="M 156.222551 222.097694 
L 164.260018 222.543926 
L 159.080553 228.706161 
z
" clip-path="url(#pc6c9783267)" style="fill: #334155; stroke: #334155; stroke-width: 1.6; stroke-linecap: round"/>
   </g>
   <g id="patch_10">
    <path d="M 301.232113 165.211699 
Q 363.591179 140.040836 424.291428 115.539544 
" clip-path="url(#pc6c9783267)" style="fill: none; stroke: #334155; stroke-width: 1.6; stroke-linecap: round"/>
    <path d="M 416.267331 114.896213 
L 424.291428 115.539544 
L 418.962305 121.572823 
z
" clip-path="url(#pc6c9783267)" style="fill: #334155; stroke: #334155; stroke-width: 1.6; stroke-linecap: round"/>
   </g>
   <g id="patch_11">
    <path d="M 301.232113 179.668301 
Q 363.591179 204.839164 424.291428 229.340456 
" clip-path="url(#pc6c9783267)" style="fill: none; stroke: #334155; stroke-width: 1.6; stroke-linecap: round"/>
    <path d="M 418.962305 223.307177 
L 424.291428 229.340456 
L 416.267331 229.983787 
z
" clip-path="url(#pc6c9783267)" style="fill: #334155; stroke: #334155; stroke-width: 1.6; stroke-linecap: round"/>
   </g>
   <g id="patch_12">
    <path d="M 222.32025 180.216 
C 223.852952 180.216 225.323084 179.601504 226.406868 178.507847 
C 227.490651 177.41419 228.0996 175.930664 228.0996 174.384 
C 228.0996 172.837336 227.490651 171.35381 226.406868 170.260153 
C 225.323084 169.166496 223.852952 168.552 222.32025 168.552 
C 220.787548 168.552 219.317416 169.166496 218.233632 170.260153 
C 217.149849 171.35381 216.5409 172.837336 216.5409 174.384 
C 216.5409 175.930664 217.149849 177.41419 218.233632 178.507847 
C 219.317416 179.601504 220.787548 180.216 222.32025 180.216 
z
" clip-path="url(#pc6c9783267)" style="fill: #2563eb; stroke: #ffffff; stroke-width: 0.8; stroke-linejoin: miter"/>
   </g>
   <g id="patch_13">
    <path d="M 248.00625 176.328 
C 249.538952 176.328 251.009084 175.713504 252.092868 174.619847 
C 253.176651 173.52619 253.7856 172.042664 253.7856 170.496 
C 253.7856 168.949336 253.176651 167.46581 252.092868 166.372153 
C 251.009084 165.278496 249.538952 164.664 248.00625 164.664 
C 246.473548 164.664 245.003416 165.278496 243.919632 166.372153 
C 242.835849 167.46581 242.2269 168.949336 242.2269 170.496 
C 242.2269 172.042664 242.835849 173.52619 243.919632 174.619847 
C 245.003416 175.713504 246.473548 176.328 248.00625 176.328 
z
" clip-path="url(#pc6c9783267)" style="fill: #2563eb; stroke: #ffffff; stroke-width: 0.8; stroke-linejoin: miter"/>
   </g>
   <g id="patch_14">
    <path d="M 302.589 166.608 
C 306.505904 166.608 310.262909 165.037621 313.032578 162.242719 
C 315.802248 159.447818 317.35845 155.656587 317.35845 151.704 
C 317.35845 147.751413 315.802248 143.960182 313.032578 141.165281 
C 310.262909 138.370379 306.505904 136.8 302.589 136.8 
C 298.672096 136.8 294.915091 138.370379 292.145422 141.165281 
C 289.375752 143.960182 287.81955 147.751413 287.81955 151.704 
C 287.81955 155.656587 289.375752 159.447818 292.145422 162.242719 
C 294.915091 165.037621 298.672096 166.608 302.589 166.608 
z
" clip-path="url(#pc6c9783267)" style="fill: #dc2626; stroke: #ffffff; stroke-width: 0.8; stroke-linejoin: miter"/>
   </g>
   <g id="patch_15">
    <path d="M 350.75025 148.464 
C 354.667154 148.464 358.424159 146.893621 361.193828 144.098719 
C 363.963498 141.303818 365.5197 137.512587 365.5197 133.56 
C 365.5197 129.607413 363.963498 125.816182 361.193828 123.021281 
C 358.424159 120.226379 354.667154 118.656 350.75025 118.656 
C 346.833346 118.656 343.076341 120.226379 340.306672 123.021281 
C 337.537002 125.816182 335.9808 129.607413 335.9808 133.56 
C 335.9808 137.512587 337.537002 141.303818 340.306672 144.098719 
C 343.076341 146.893621 346.833346 148.464 350.75025 148.464 
z
" clip-path="url(#pc6c9783267)" style="fill: #dc2626; stroke: #ffffff; stroke-width: 0.8; stroke-linejoin: miter"/>
   </g>
   <g id="patch_16">
    <path d="M 315.432 188.64 
C 316.794401 188.64 318.101186 188.093781 319.064549 187.121642 
C 320.027912 186.149502 320.5692 184.830813 320.5692 183.456 
C 320.5692 182.081187 320.027912 180.762498 319.064549 179.790358 
C 318.101186 178.818219 316.794401 178.272 315.432 178.272 
C 314.069599 178.272 312.762814 178.818219 311.799451 179.790358 
C 310.836088 180.762498 310.2948 182.081187 310.2948 183.456 
C 310.2948 184.830813 310.836088 186.149502 311.799451 187.121642 
C 312.762814 188.093781 314.069599 188.64 315.432 188.64 
z
" clip-path="url(#pc6c9783267)" style="fill: #2563eb; stroke: #ffffff; stroke-width: 0.8; stroke-linejoin: miter"/>
   </g>
   <g id="patch_17">
    <path d="M 363.59325 204.84 
C 364.955651 204.84 366.262436 204.293781 367.225799 203.321642 
C 368.189162 202.349502 368.73045 201.030813 368.73045 199.656 
C 368.73045 198.281187 368.189162 196.962498 367.225799 195.990358 
C 366.262436 195.018219 364.955651 194.472 363.59325 194.472 
C 362.230849 194.472 360.924064 195.018219 359.960701 195.990358 
C 358.997338 196.962498 358.45605 198.281187 358.45605 199.656 
C 358.45605 201.030813 358.997338 202.349502 359.960701 203.321642 
C 360.924064 204.293781 362.230849 204.84 363.59325 204.84 
z
" clip-path="url(#pc6c9783267)" style="fill: #2563eb; stroke: #ffffff; stroke-width: 0.8; stroke-linejoin: miter"/>
   </g>
   <g id="text_1">
    <!-- Sample inlet -->
    <g style="fill: #1e3a8a" transform="translate(55.36125 39.716516) scale(0.11 -0.11)">
     <defs>
      <path id="DejaVuSans-Bold-53" d="M 3834 4519 
L 3834 3531 
Q 3450 3703 3084 3790 
Q 2719 3878 2394 3878 
Q 1963 3878 1756 3759 
Q 1550 3641 1550 3391 
Q 1550 3203 1689 3098 
Q 1828 2994 2194 2919 
L 2706 2816 
Q 3484 2659 3812 2340 
Q 4141 2022 4141 1434 
Q 4141 663 3683 286 
Q 3225 -91 2284 -91 
Q 1841 -91 1394 -6 
Q 947 78 500 244 
L 500 1259 
Q 947 1022 1364 901 
Q 1781 781 2169 781 
Q 2563 781 2772 912 
Q 2981 1044 2981 1288 
Q 2981 1506 2839 1625 
Q 2697 1744 2272 1838 
L 1806 1941 
Q 1106 2091 782 2419 
Q 459 2747 459 3303 
Q 459 4000 909 4375 
Q 1359 4750 2203 4750 
Q 2588 4750 2994 4692 
Q 3400 4634 3834 4519 
z
" transform="scale(0.015625)"/>
      <path id="DejaVuSans-Bold-61" d="M 2106 1575 
Q 1756 1575 1579 1456 
Q 1403 1338 1403 1106 
Q 1403 894 1545 773 
Q 1688 653 1941 653 
Q 2256 653 2472 879 
Q 2688 1106 2688 1447 
L 2688 1575 
L 2106 1575 
z
M 3816 1997 
L 3816 0 
L 2688 0 
L 2688 519 
Q 2463 200 2181 54 
Q 1900 -91 1497 -91 
Q 953 -91 614 226 
Q 275 544 275 1050 
Q 275 1666 698 1953 
Q 1122 2241 2028 2241 
L 2688 2241 
L 2688 2328 
Q 2688 2594 2478 2717 
Q 2269 2841 1825 2841 
Q 1466 2841 1156 2769 
Q 847 2697 581 2553 
L 581 3406 
Q 941 3494 1303 3539 
Q 1666 3584 2028 3584 
Q 2975 3584 3395 3211 
Q 3816 2838 3816 1997 
z
" transform="scale(0.015625)"/>
      <path id="DejaVuSans-Bold-6d" d="M 3781 2919 
Q 3994 3244 4286 3414 
Q 4578 3584 4928 3584 
Q 5531 3584 5847 3212 
Q 6163 2841 6163 2131 
L 6163 0 
L 5038 0 
L 5038 1825 
Q 5041 1866 5042 1909 
Q 5044 1953 5044 2034 
Q 5044 2406 4934 2573 
Q 4825 2741 4581 2741 
Q 4263 2741 4089 2478 
Q 3916 2216 3909 1719 
L 3909 0 
L 2784 0 
L 2784 1825 
Q 2784 2406 2684 2573 
Q 2584 2741 2328 2741 
Q 2006 2741 1831 2477 
Q 1656 2213 1656 1722 
L 1656 0 
L 531 0 
L 531 3500 
L 1656 3500 
L 1656 2988 
Q 1863 3284 2130 3434 
Q 2397 3584 2719 3584 
Q 3081 3584 3359 3409 
Q 3638 3234 3781 2919 
z
" transform="scale(0.015625)"/>
      <path id="DejaVuSans-Bold-70" d="M 1656 506 
L 1656 -1331 
L 538 -1331 
L 538 3500 
L 1656 3500 
L 1656 2988 
Q 1888 3294 2169 3439 
Q 2450 3584 2816 3584 
Q 3463 3584 3878 3070 
Q 4294 2556 4294 1747 
Q 4294 938 3878 423 
Q 3463 -91 2816 -91 
Q 2450 -91 2169 54 
Q 1888 200 1656 506 
z
M 2400 2772 
Q 2041 2772 1848 2508 
Q 1656 2244 1656 1747 
Q 1656 1250 1848 986 
Q 2041 722 2400 722 
Q 2759 722 2948 984 
Q 3138 1247 3138 1747 
Q 3138 2247 2948 2509 
Q 2759 2772 2400 2772 
z
" transform="scale(0.015625)"/>
      <path id="DejaVuSans-Bold-6c" d="M 538 4863 
L 1656 4863 
L 1656 0 
L 538 0 
L 538 4863 
z
" transform="scale(0.015625)"/>
      <path id="DejaVuSans-Bold-65" d="M 4031 1759 
L 4031 1441 
L 1416 1441 
Q 1456 1047 1700 850 
Q 1944 653 2381 653 
Q 2734 653 3104 758 
Q 3475 863 3866 1075 
L 3866 213 
Q 3469 63 3072 -14 
Q 2675 -91 2278 -91 
Q 1328 -91 801 392 
Q 275 875 275 1747 
Q 275 2603 792 3093 
Q 1309 3584 2216 3584 
Q 3041 3584 3536 3087 
Q 4031 2591 4031 1759 
z
M 2881 2131 
Q 2881 2450 2695 2645 
Q 2509 2841 2209 2841 
Q 1884 2841 1681 2658 
Q 1478 2475 1428 2131 
L 2881 2131 
z
" transform="scale(0.015625)"/>
      <path id="DejaVuSans-Bold-20" transform="scale(0.015625)"/>
      <path id="DejaVuSans-Bold-69" d="M 538 3500 
L 1656 3500 
L 1656 0 
L 538 0 
L 538 3500 
z
M 538 4863 
L 1656 4863 
L 1656 3950 
L 538 3950 
L 538 4863 
z
" transform="scale(0.015625)"/>
      <path id="DejaVuSans-Bold-6e" d="M 4056 2131 
L 4056 0 
L 2931 0 
L 2931 347 
L 2931 1631 
Q 2931 2084 2911 2256 
Q 2891 2428 2841 2509 
Q 2775 2619 2662 2680 
Q 2550 2741 2406 2741 
Q 2056 2741 1856 2470 
Q 1656 2200 1656 1722 
L 1656 0 
L 538 0 
L 538 3500 
L 1656 3500 
L 1656 2988 
Q 1909 3294 2193 3439 
Q 2478 3584 2822 3584 
Q 3428 3584 3742 3212 
Q 4056 2841 4056 2131 
z
" transform="scale(0.015625)"/>
      <path id="DejaVuSans-Bold-74" d="M 1759 4494 
L 1759 3500 
L 2913 3500 
L 2913 2700 
L 1759 2700 
L 1759 1216 
Q 1759 972 1856 886 
Q 1953 800 2241 800 
L 2816 800 
L 2816 0 
L 1856 0 
Q 1194 0 917 276 
Q 641 553 641 1216 
L 641 2700 
L 84 2700 
L 84 3500 
L 641 3500 
L 641 4494 
L 1759 4494 
z
" transform="scale(0.015625)"/>
     </defs>
     <use xlink:href="#DejaVuSans-Bold-53"/>
     <use xlink:href="#DejaVuSans-Bold-61" transform="translate(72.021484 0)"/>
     <use xlink:href="#DejaVuSans-Bold-6d" transform="translate(139.501953 0)"/>
     <use xlink:href="#DejaVuSans-Bold-70" transform="translate(243.701172 0)"/>
     <use xlink:href="#DejaVuSans-Bold-6c" transform="translate(315.283203 0)"/>
     <use xlink:href="#DejaVuSans-Bold-65" transform="translate(349.560547 0)"/>
     <use xlink:href="#DejaVuSans-Bold-20" transform="translate(417.382812 0)"/>
     <use xlink:href="#DejaVuSans-Bold-69" transform="translate(452.197266 0)"/>
     <use xlink:href="#DejaVuSans-Bold-6e" transform="translate(486.474609 0)"/>
     <use xlink:href="#DejaVuSans-Bold-6c" transform="translate(557.666016 0)"/>
     <use xlink:href="#DejaVuSans-Bold-65" transform="translate(591.943359 0)"/>
     <use xlink:href="#DejaVuSans-Bold-74" transform="translate(659.765625 0)"/>
    </g>
    <!-- (bead suspension) -->
    <g style="fill: #1e3a8a" transform="translate(55.36125 52.034109) scale(0.11 -0.11)">
     <defs>
      <path id="DejaVuSans-Bold-28" d="M 2413 -844 
L 1484 -844 
Q 1006 -72 778 623 
Q 550 1319 550 2003 
Q 550 2688 779 3389 
Q 1009 4091 1484 4856 
L 2413 4856 
Q 2013 4116 1813 3408 
Q 1613 2700 1613 2009 
Q 1613 1319 1811 609 
Q 2009 -100 2413 -844 
z
" transform="scale(0.015625)"/>
      <path id="DejaVuSans-Bold-62" d="M 2400 722 
Q 2759 722 2948 984 
Q 3138 1247 3138 1747 
Q 3138 2247 2948 2509 
Q 2759 2772 2400 2772 
Q 2041 2772 1848 2508 
Q 1656 2244 1656 1747 
Q 1656 1250 1848 986 
Q 2041 722 2400 722 
z
M 1656 2988 
Q 1888 3294 2169 3439 
Q 2450 3584 2816 3584 
Q 3463 3584 3878 3070 
Q 4294 2556 4294 1747 
Q 4294 938 3878 423 
Q 3463 -91 2816 -91 
Q 2450 -91 2169 54 
Q 1888 200 1656 506 
L 1656 0 
L 538 0 
L 538 4863 
L 1656 4863 
L 1656 2988 
z
" transform="scale(0.015625)"/>
      <path id="DejaVuSans-Bold-64" d="M 2919 2988 
L 2919 4863 
L 4044 4863 
L 4044 0 
L 2919 0 
L 2919 506 
Q 2688 197 2409 53 
Q 2131 -91 1766 -91 
Q 1119 -91 703 423 
Q 288 938 288 1747 
Q 288 2556 703 3070 
Q 1119 3584 1766 3584 
Q 2128 3584 2408 3439 
Q 2688 3294 2919 2988 
z
M 2181 722 
Q 2541 722 2730 984 
Q 2919 1247 2919 1747 
Q 2919 2247 2730 2509 
Q 2541 2772 2181 2772 
Q 1825 2772 1636 2509 
Q 1447 2247 1447 1747 
Q 1447 1247 1636 984 
Q 1825 722 2181 722 
z
" transform="scale(0.015625)"/>
      <path id="DejaVuSans-Bold-73" d="M 3272 3391 
L 3272 2541 
Q 2913 2691 2578 2766 
Q 2244 2841 1947 2841 
Q 1628 2841 1473 2761 
Q 1319 2681 1319 2516 
Q 1319 2381 1436 2309 
Q 1553 2238 1856 2203 
L 2053 2175 
Q 2913 2066 3209 1816 
Q 3506 1566 3506 1031 
Q 3506 472 3093 190 
Q 2681 -91 1863 -91 
Q 1516 -91 1145 -36 
Q 775 19 384 128 
L 384 978 
Q 719 816 1070 734 
Q 1422 653 1784 653 
Q 2113 653 2278 743 
Q 2444 834 2444 1013 
Q 2444 1163 2330 1236 
Q 2216 1309 1875 1350 
L 1678 1375 
Q 931 1469 631 1722 
Q 331 1975 331 2491 
Q 331 3047 712 3315 
Q 1094 3584 1881 3584 
Q 2191 3584 2531 3537 
Q 2872 3491 3272 3391 
z
" transform="scale(0.015625)"/>
      <path id="DejaVuSans-Bold-75" d="M 500 1363 
L 500 3500 
L 1625 3500 
L 1625 3150 
Q 1625 2866 1622 2436 
Q 1619 2006 1619 1863 
Q 1619 1441 1641 1255 
Q 1663 1069 1716 984 
Q 1784 875 1895 815 
Q 2006 756 2150 756 
Q 2500 756 2700 1025 
Q 2900 1294 2900 1772 
L 2900 3500 
L 4019 3500 
L 4019 0 
L 2900 0 
L 2900 506 
Q 2647 200 2364 54 
Q 2081 -91 1741 -91 
Q 1134 -91 817 281 
Q 500 653 500 1363 
z
" transform="scale(0.015625)"/>
      <path id="DejaVuSans-Bold-6f" d="M 2203 2784 
Q 1831 2784 1636 2517 
Q 1441 2250 1441 1747 
Q 1441 1244 1636 976 
Q 1831 709 2203 709 
Q 2569 709 2762 976 
Q 2956 1244 2956 1747 
Q 2956 2250 2762 2517 
Q 2569 2784 2203 2784 
z
M 2203 3584 
Q 3106 3584 3614 3096 
Q 4122 2609 4122 1747 
Q 4122 884 3614 396 
Q 3106 -91 2203 -91 
Q 1297 -91 786 396 
Q 275 884 275 1747 
Q 275 2609 786 3096 
Q 1297 3584 2203 3584 
z
" transform="scale(0.015625)"/>
      <path id="DejaVuSans-Bold-29" d="M 513 -844 
Q 913 -100 1113 609 
Q 1313 1319 1313 2009 
Q 1313 2700 1113 3408 
Q 913 4116 513 4856 
L 1441 4856 
Q 1916 4091 2145 3389 
Q 2375 2688 2375 2003 
Q 2375 1319 2147 623 
Q 1919 -72 1441 -844 
L 513 -844 
z
" transform="scale(0.015625)"/>
     </defs>
     <use xlink:href="#DejaVuSans-Bold-28"/>
     <use xlink:href="#DejaVuSans-Bold-62" transform="translate(45.703125 0)"/>
     <use xlink:href="#DejaVuSans-Bold-65" transform="translate(117.285156 0)"/>
     <use xlink:href="#DejaVuSans-Bold-61" transform="translate(185.107422 0)"/>
     <use xlink:href="#DejaVuSans-Bold-64" transform="translate(252.587891 0)"/>
     <use xlink:href="#DejaVuSans-Bold-20" transform="translate(324.169922 0)"/>
     <use xlink:href="#DejaVuSans-Bold-73" transform="translate(358.984375 0)"/>
     <use xlink:href="#DejaVuSans-Bold-75" transform="translate(418.505859 0)"/>
     <use xlink:href="#DejaVuSans-Bold-73" transform="translate(489.697266 0)"/>
     <use xlink:href="#DejaVuSans-Bold-70" transform="translate(549.21875 0)"/>
     <use xlink:href="#DejaVuSans-Bold-65" transform="translate(620.800781 0)"/>
     <use xlink:href="#DejaVuSans-Bold-6e" transform="translate(688.623047 0)"/>
     <use xlink:href="#DejaVuSans-Bold-73" transform="translate(759.814453 0)"/>
     <use xlink:href="#DejaVuSans-Bold-69" transform="translate(819.335938 0)"/>
     <use xlink:href="#DejaVuSans-Bold-6f" transform="translate(853.613281 0)"/>
     <use xlink:href="#DejaVuSans-Bold-6e" transform="translate(922.314453 0)"/>
     <use xlink:href="#DejaVuSans-Bold-29" transform="translate(993.505859 0)"/>
    </g>
   </g>
   <g id="text_2">
    <!-- Sheath/buffer inlet -->
    <g style="fill: #166534" transform="translate(55.36125 294.380516) scale(0.11 -0.11)">
     <defs>
      <path id="DejaVuSans-Bold-68" d="M 4056 2131 
L 4056 0 
L 2931 0 
L 2931 347 
L 2931 1625 
Q 2931 2084 2911 2256 
Q 2891 2428 2841 2509 
Q 2775 2619 2662 2680 
Q 2550 2741 2406 2741 
Q 2056 2741 1856 2470 
Q 1656 2200 1656 1722 
L 1656 0 
L 538 0 
L 538 4863 
L 1656 4863 
L 1656 2988 
Q 1909 3294 2193 3439 
Q 2478 3584 2822 3584 
Q 3428 3584 3742 3212 
Q 4056 2841 4056 2131 
z
" transform="scale(0.015625)"/>
      <path id="DejaVuSans-Bold-2f" d="M 1644 4666 
L 2338 4666 
L 691 -594 
L 0 -594 
L 1644 4666 
z
" transform="scale(0.015625)"/>
      <path id="DejaVuSans-Bold-66" d="M 2841 4863 
L 2841 4128 
L 2222 4128 
Q 1984 4128 1890 4042 
Q 1797 3956 1797 3744 
L 1797 3500 
L 2753 3500 
L 2753 2700 
L 1797 2700 
L 1797 0 
L 678 0 
L 678 2700 
L 122 2700 
L 122 3500 
L 678 3500 
L 678 3744 
Q 678 4316 997 4589 
Q 1316 4863 1984 4863 
L 2841 4863 
z
" transform="scale(0.015625)"/>
      <path id="DejaVuSans-Bold-72" d="M 3138 2547 
Q 2991 2616 2845 2648 
Q 2700 2681 2553 2681 
Q 2122 2681 1889 2404 
Q 1656 2128 1656 1613 
L 1656 0 
L 538 0 
L 538 3500 
L 1656 3500 
L 1656 2925 
Q 1872 3269 2151 3426 
Q 2431 3584 2822 3584 
Q 2878 3584 2943 3579 
Q 3009 3575 3134 3559 
L 3138 2547 
z
" transform="scale(0.015625)"/>
     </defs>
     <use xlink:href="#DejaVuSans-Bold-53"/>
     <use xlink:href="#DejaVuSans-Bold-68" transform="translate(72.021484 0)"/>
     <use xlink:href="#DejaVuSans-Bold-65" transform="translate(143.212891 0)"/>
     <use xlink:href="#DejaVuSans-Bold-61" transform="translate(211.035156 0)"/>
     <use xlink:href="#DejaVuSans-Bold-74" transform="translate(278.515625 0)"/>
     <use xlink:href="#DejaVuSans-Bold-68" transform="translate(326.318359 0)"/>
     <use xlink:href="#DejaVuSans-Bold-2f" transform="translate(397.509766 0)"/>
     <use xlink:href="#DejaVuSans-Bold-62" transform="translate(434.033203 0)"/>
     <use xlink:href="#DejaVuSans-Bold-75" transform="translate(505.615234 0)"/>
     <use xlink:href="#DejaVuSans-Bold-66" transform="translate(576.806641 0)"/>
     <use xlink:href="#DejaVuSans-Bold-66" transform="translate(620.3125 0)"/>
     <use xlink:href="#DejaVuSans-Bold-65" transform="translate(663.818359 0)"/>
     <use xlink:href="#DejaVuSans-Bold-72" transform="translate(731.640625 0)"/>
     <use xlink:href="#DejaVuSans-Bold-20" transform="translate(780.957031 0)"/>
     <use xlink:href="#DejaVuSans-Bold-69" transform="translate(815.771484 0)"/>
     <use xlink:href="#DejaVuSans-Bold-6e" transform="translate(850.048828 0)"/>
     <use xlink:href="#DejaVuSans-Bold-6c" transform="translate(921.240234 0)"/>
     <use xlink:href="#DejaVuSans-Bold-65" transform="translate(955.517578 0)"/>
     <use xlink:href="#DejaVuSans-Bold-74" transform="translate(1023.339844 0)"/>
    </g>
    <!-- (particle-free fluid) -->
    <g style="fill: #166534" transform="translate(55.36125 306.698109) scale(0.11 -0.11)">
     <defs>
      <path id="DejaVuSans-Bold-63" d="M 3366 3391 
L 3366 2478 
Q 3138 2634 2908 2709 
Q 2678 2784 2431 2784 
Q 1963 2784 1702 2511 
Q 1441 2238 1441 1747 
Q 1441 1256 1702 982 
Q 1963 709 2431 709 
Q 2694 709 2930 787 
Q 3166 866 3366 1019 
L 3366 103 
Q 3103 6 2833 -42 
Q 2563 -91 2291 -91 
Q 1344 -91 809 395 
Q 275 881 275 1747 
Q 275 2613 809 3098 
Q 1344 3584 2291 3584 
Q 2566 3584 2833 3536 
Q 3100 3488 3366 3391 
z
" transform="scale(0.015625)"/>
      <path id="DejaVuSans-Bold-2d" d="M 347 2297 
L 2309 2297 
L 2309 1388 
L 347 1388 
L 347 2297 
z
" transform="scale(0.015625)"/>
     </defs>
     <use xlink:href="#DejaVuSans-Bold-28"/>
     <use xlink:href="#DejaVuSans-Bold-70" transform="translate(45.703125 0)"/>
     <use xlink:href="#DejaVuSans-Bold-61" transform="translate(117.285156 0)"/>
     <use xlink:href="#DejaVuSans-Bold-72" transform="translate(184.765625 0)"/>
     <use xlink:href="#DejaVuSans-Bold-74" transform="translate(234.082031 0)"/>
     <use xlink:href="#DejaVuSans-Bold-69" transform="translate(281.884766 0)"/>
     <use xlink:href="#DejaVuSans-Bold-63" transform="translate(316.162109 0)"/>
     <use xlink:href="#DejaVuSans-Bold-6c" transform="translate(375.439453 0)"/>
     <use xlink:href="#DejaVuSans-Bold-65" transform="translate(409.716797 0)"/>
     <use xlink:href="#DejaVuSans-Bold-2d" transform="translate(477.539062 0)"/>
     <use xlink:href="#DejaVuSans-Bold-66" transform="translate(519.042969 0)"/>
     <use xlink:href="#DejaVuSans-Bold-72" transform="translate(562.548828 0)"/>
     <use xlink:href="#DejaVuSans-Bold-65" transform="translate(611.865234 0)"/>
     <use xlink:href="#DejaVuSans-Bold-65" transform="translate(679.6875 0)"/>
     <use xlink:href="#DejaVuSans-Bold-20" transform="translate(747.509766 0)"/>
     <use xlink:href="#DejaVuSans-Bold-66" transform="translate(782.324219 0)"/>
     <use xlink:href="#DejaVuSans-Bold-6c" transform="translate(825.830078 0)"/>
     <use xlink:href="#DejaVuSans-Bold-75" transform="translate(860.107422 0)"/>
     <use xlink:href="#DejaVuSans-Bold-69" transform="translate(931.298828 0)"/>
     <use xlink:href="#DejaVuSans-Bold-64" transform="translate(965.576172 0)"/>
     <use xlink:href="#DejaVuSans-Bold-29" transform="translate(1037.158203 0)"/>
    </g>
   </g>
   <g id="text_3">
    <!-- Pinched -->
    <g style="fill: #0f172a" transform="translate(218.835966 105.908812) scale(0.11 -0.11)">
     <defs>
      <path id="DejaVuSans-Bold-50" d="M 588 4666 
L 2584 4666 
Q 3475 4666 3951 4270 
Q 4428 3875 4428 3144 
Q 4428 2409 3951 2014 
Q 3475 1619 2584 1619 
L 1791 1619 
L 1791 0 
L 588 0 
L 588 4666 
z
M 1791 3794 
L 1791 2491 
L 2456 2491 
Q 2806 2491 2997 2661 
Q 3188 2831 3188 3144 
Q 3188 3456 2997 3625 
Q 2806 3794 2456 3794 
L 1791 3794 
z
" transform="scale(0.015625)"/>
     </defs>
     <use xlink:href="#DejaVuSans-Bold-50"/>
     <use xlink:href="#DejaVuSans-Bold-69" transform="translate(73.291016 0)"/>
     <use xlink:href="#DejaVuSans-Bold-6e" transform="translate(107.568359 0)"/>
     <use xlink:href="#DejaVuSans-Bold-63" transform="translate(178.759766 0)"/>
     <use xlink:href="#DejaVuSans-Bold-68" transform="translate(238.037109 0)"/>
     <use xlink:href="#DejaVuSans-Bold-65" transform="translate(309.228516 0)"/>
     <use xlink:href="#DejaVuSans-Bold-64" transform="translate(377.050781 0)"/>
    </g>
    <!-- segment -->
    <g style="fill: #0f172a" transform="translate(216.564638 118.226406) scale(0.11 -0.11)">
     <defs>
      <path id="DejaVuSans-Bold-67" d="M 2919 594 
Q 2688 288 2409 144 
Q 2131 0 1766 0 
Q 1125 0 706 504 
Q 288 1009 288 1791 
Q 288 2575 706 3076 
Q 1125 3578 1766 3578 
Q 2131 3578 2409 3434 
Q 2688 3291 2919 2981 
L 2919 3500 
L 4044 3500 
L 4044 353 
Q 4044 -491 3511 -936 
Q 2978 -1381 1966 -1381 
Q 1638 -1381 1331 -1331 
Q 1025 -1281 716 -1178 
L 716 -306 
Q 1009 -475 1290 -558 
Q 1572 -641 1856 -641 
Q 2406 -641 2662 -400 
Q 2919 -159 2919 353 
L 2919 594 
z
M 2181 2772 
Q 1834 2772 1640 2515 
Q 1447 2259 1447 1791 
Q 1447 1309 1634 1061 
Q 1822 813 2181 813 
Q 2531 813 2725 1069 
Q 2919 1325 2919 1791 
Q 2919 2259 2725 2515 
Q 2531 2772 2181 2772 
z
" transform="scale(0.015625)"/>
     </defs>
     <use xlink:href="#DejaVuSans-Bold-73"/>
     <use xlink:href="#DejaVuSans-Bold-65" transform="translate(59.521484 0)"/>
     <use xlink:href="#DejaVuSans-Bold-67" transform="translate(127.34375 0)"/>
     <use xlink:href="#DejaVuSans-Bold-6d" transform="translate(198.925781 0)"/>
     <use xlink:href="#DejaVuSans-Bold-65" transform="translate(303.125 0)"/>
     <use xlink:href="#DejaVuSans-Bold-6e" transform="translate(370.947266 0)"/>
     <use xlink:href="#DejaVuSans-Bold-74" transform="translate(442.138672 0)"/>
    </g>
   </g>
   <g id="text_4">
    <!-- Broadened region amplifies -->
    <g style="fill: #0f172a" transform="translate(300.675469 33.236516) scale(0.11 -0.11)">
     <defs>
      <path id="DejaVuSans-42" d="M 1259 2228 
L 1259 519 
L 2272 519 
Q 2781 519 3026 730 
Q 3272 941 3272 1375 
Q 3272 1813 3026 2020 
Q 2781 2228 2272 2228 
L 1259 2228 
z
M 1259 4147 
L 1259 2741 
L 2194 2741 
Q 2656 2741 2882 2914 
Q 3109 3088 3109 3444 
Q 3109 3797 2882 3972 
Q 2656 4147 2194 4147 
L 1259 4147 
z
M 628 4666 
L 2241 4666 
Q 2963 4666 3353 4366 
Q 3744 4066 3744 3513 
Q 3744 3084 3544 2831 
Q 3344 2578 2956 2516 
Q 3422 2416 3680 2098 
Q 3938 1781 3938 1306 
Q 3938 681 3513 340 
Q 3088 0 2303 0 
L 628 0 
L 628 4666 
z
" transform="scale(0.015625)"/>
      <path id="DejaVuSans-72" d="M 2631 2963 
Q 2534 3019 2420 3045 
Q 2306 3072 2169 3072 
Q 1681 3072 1420 2755 
Q 1159 2438 1159 1844 
L 1159 0 
L 581 0 
L 581 3500 
L 1159 3500 
L 1159 2956 
Q 1341 3275 1631 3429 
Q 1922 3584 2338 3584 
Q 2397 3584 2469 3576 
Q 2541 3569 2628 3553 
L 2631 2963 
z
" transform="scale(0.015625)"/>
      <path id="DejaVuSans-6f" d="M 1959 3097 
Q 1497 3097 1228 2736 
Q 959 2375 959 1747 
Q 959 1119 1226 758 
Q 1494 397 1959 397 
Q 2419 397 2687 759 
Q 2956 1122 2956 1747 
Q 2956 2369 2687 2733 
Q 2419 3097 1959 3097 
z
M 1959 3584 
Q 2709 3584 3137 3096 
Q 3566 2609 3566 1747 
Q 3566 888 3137 398 
Q 2709 -91 1959 -91 
Q 1206 -91 779 398 
Q 353 888 353 1747 
Q 353 2609 779 3096 
Q 1206 3584 1959 3584 
z
" transform="scale(0.015625)"/>
      <path id="DejaVuSans-61" d="M 2194 1759 
Q 1497 1759 1228 1600 
Q 959 1441 959 1056 
Q 959 750 1161 570 
Q 1363 391 1709 391 
Q 2188 391 2477 730 
Q 2766 1069 2766 1631 
L 2766 1759 
L 2194 1759 
z
M 3341 1997 
L 3341 0 
L 2766 0 
L 2766 531 
Q 2569 213 2275 61 
Q 1981 -91 1556 -91 
Q 1019 -91 701 211 
Q 384 513 384 1019 
Q 384 1609 779 1909 
Q 1175 2209 1959 2209 
L 2766 2209 
L 2766 2266 
Q 2766 2663 2505 2880 
Q 2244 3097 1772 3097 
Q 1472 3097 1187 3025 
Q 903 2953 641 2809 
L 641 3341 
Q 956 3463 1253 3523 
Q 1550 3584 1831 3584 
Q 2591 3584 2966 3190 
Q 3341 2797 3341 1997 
z
" transform="scale(0.015625)"/>
      <path id="DejaVuSans-64" d="M 2906 2969 
L 2906 4863 
L 3481 4863 
L 3481 0 
L 2906 0 
L 2906 525 
Q 2725 213 2448 61 
Q 2172 -91 1784 -91 
Q 1150 -91 751 415 
Q 353 922 353 1747 
Q 353 2572 751 3078 
Q 1150 3584 1784 3584 
Q 2172 3584 2448 3432 
Q 2725 3281 2906 2969 
z
M 947 1747 
Q 947 1113 1208 752 
Q 1469 391 1925 391 
Q 2381 391 2643 752 
Q 2906 1113 2906 1747 
Q 2906 2381 2643 2742 
Q 2381 3103 1925 3103 
Q 1469 3103 1208 2742 
Q 947 2381 947 1747 
z
" transform="scale(0.015625)"/>
      <path id="DejaVuSans-65" d="M 3597 1894 
L 3597 1613 
L 953 1613 
Q 991 1019 1311 708 
Q 1631 397 2203 397 
Q 2534 397 2845 478 
Q 3156 559 3463 722 
L 3463 178 
Q 3153 47 2828 -22 
Q 2503 -91 2169 -91 
Q 1331 -91 842 396 
Q 353 884 353 1716 
Q 353 2575 817 3079 
Q 1281 3584 2069 3584 
Q 2775 3584 3186 3129 
Q 3597 2675 3597 1894 
z
M 3022 2063 
Q 3016 2534 2758 2815 
Q 2500 3097 2075 3097 
Q 1594 3097 1305 2825 
Q 1016 2553 972 2059 
L 3022 2063 
z
" transform="scale(0.015625)"/>
      <path id="DejaVuSans-6e" d="M 3513 2113 
L 3513 0 
L 2938 0 
L 2938 2094 
Q 2938 2591 2744 2837 
Q 2550 3084 2163 3084 
Q 1697 3084 1428 2787 
Q 1159 2491 1159 1978 
L 1159 0 
L 581 0 
L 581 3500 
L 1159 3500 
L 1159 2956 
Q 1366 3272 1645 3428 
Q 1925 3584 2291 3584 
Q 2894 3584 3203 3211 
Q 3513 2838 3513 2113 
z
" transform="scale(0.015625)"/>
      <path id="DejaVuSans-20" transform="scale(0.015625)"/>
      <path id="DejaVuSans-67" d="M 2906 1791 
Q 2906 2416 2648 2759 
Q 2391 3103 1925 3103 
Q 1463 3103 1205 2759 
Q 947 2416 947 1791 
Q 947 1169 1205 825 
Q 1463 481 1925 481 
Q 2391 481 2648 825 
Q 2906 1169 2906 1791 
z
M 3481 434 
Q 3481 -459 3084 -895 
Q 2688 -1331 1869 -1331 
Q 1566 -1331 1297 -1286 
Q 1028 -1241 775 -1147 
L 775 -588 
Q 1028 -725 1275 -790 
Q 1522 -856 1778 -856 
Q 2344 -856 2625 -561 
Q 2906 -266 2906 331 
L 2906 616 
Q 2728 306 2450 153 
Q 2172 0 1784 0 
Q 1141 0 747 490 
Q 353 981 353 1791 
Q 353 2603 747 3093 
Q 1141 3584 1784 3584 
Q 2172 3584 2450 3431 
Q 2728 3278 2906 2969 
L 2906 3500 
L 3481 3500 
L 3481 434 
z
" transform="scale(0.015625)"/>
      <path id="DejaVuSans-69" d="M 603 3500 
L 1178 3500 
L 1178 0 
L 603 0 
L 603 3500 
z
M 603 4863 
L 1178 4863 
L 1178 4134 
L 603 4134 
L 603 4863 
z
" transform="scale(0.015625)"/>
      <path id="DejaVuSans-6d" d="M 3328 2828 
Q 3544 3216 3844 3400 
Q 4144 3584 4550 3584 
Q 5097 3584 5394 3201 
Q 5691 2819 5691 2113 
L 5691 0 
L 5113 0 
L 5113 2094 
Q 5113 2597 4934 2840 
Q 4756 3084 4391 3084 
Q 3944 3084 3684 2787 
Q 3425 2491 3425 1978 
L 3425 0 
L 2847 0 
L 2847 2094 
Q 2847 2600 2669 2842 
Q 2491 3084 2119 3084 
Q 1678 3084 1418 2786 
Q 1159 2488 1159 1978 
L 1159 0 
L 581 0 
L 581 3500 
L 1159 3500 
L 1159 2956 
Q 1356 3278 1631 3431 
Q 1906 3584 2284 3584 
Q 2666 3584 2933 3390 
Q 3200 3197 3328 2828 
z
" transform="scale(0.015625)"/>
      <path id="DejaVuSans-70" d="M 1159 525 
L 1159 -1331 
L 581 -1331 
L 581 3500 
L 1159 3500 
L 1159 2969 
Q 1341 3281 1617 3432 
Q 1894 3584 2278 3584 
Q 2916 3584 3314 3078 
Q 3713 2572 3713 1747 
Q 3713 922 3314 415 
Q 2916 -91 2278 -91 
Q 1894 -91 1617 61 
Q 1341 213 1159 525 
z
M 3116 1747 
Q 3116 2381 2855 2742 
Q 2594 3103 2138 3103 
Q 1681 3103 1420 2742 
Q 1159 2381 1159 1747 
Q 1159 1113 1420 752 
Q 1681 391 2138 391 
Q 2594 391 2855 752 
Q 3116 1113 3116 1747 
z
" transform="scale(0.015625)"/>
      <path id="DejaVuSans-6c" d="M 603 4863 
L 1178 4863 
L 1178 0 
L 603 0 
L 603 4863 
z
" transform="scale(0.015625)"/>
      <path id="DejaVuSans-66" d="M 2375 4863 
L 2375 4384 
L 1825 4384 
Q 1516 4384 1395 4259 
Q 1275 4134 1275 3809 
L 1275 3500 
L 2222 3500 
L 2222 3053 
L 1275 3053 
L 1275 0 
L 697 0 
L 697 3053 
L 147 3053 
L 147 3500 
L 697 3500 
L 697 3744 
Q 697 4328 969 4595 
Q 1241 4863 1831 4863 
L 2375 4863 
z
" transform="scale(0.015625)"/>
      <path id="DejaVuSans-73" d="M 2834 3397 
L 2834 2853 
Q 2591 2978 2328 3040 
Q 2066 3103 1784 3103 
Q 1356 3103 1142 2972 
Q 928 2841 928 2578 
Q 928 2378 1081 2264 
Q 1234 2150 1697 2047 
L 1894 2003 
Q 2506 1872 2764 1633 
Q 3022 1394 3022 966 
Q 3022 478 2636 193 
Q 2250 -91 1575 -91 
Q 1294 -91 989 -36 
Q 684 19 347 128 
L 347 722 
Q 666 556 975 473 
Q 1284 391 1588 391 
Q 1994 391 2212 530 
Q 2431 669 2431 922 
Q 2431 1156 2273 1281 
Q 2116 1406 1581 1522 
L 1381 1569 
Q 847 1681 609 1914 
Q 372 2147 372 2553 
Q 372 3047 722 3315 
Q 1072 3584 1716 3584 
Q 2034 3584 2315 3537 
Q 2597 3491 2834 3397 
z
" transform="scale(0.015625)"/>
     </defs>
     <use xlink:href="#DejaVuSans-42"/>
     <use xlink:href="#DejaVuSans-72" transform="translate(68.603516 0)"/>
     <use xlink:href="#DejaVuSans-6f" transform="translate(107.466797 0)"/>
     <use xlink:href="#DejaVuSans-61" transform="translate(168.648438 0)"/>
     <use xlink:href="#DejaVuSans-64" transform="translate(229.927734 0)"/>
     <use xlink:href="#DejaVuSans-65" transform="translate(293.404297 0)"/>
     <use xlink:href="#DejaVuSans-6e" transform="translate(354.927734 0)"/>
     <use xlink:href="#DejaVuSans-65" transform="translate(418.306641 0)"/>
     <use xlink:href="#DejaVuSans-64" transform="translate(479.830078 0)"/>
     <use xlink:href="#DejaVuSans-20" transform="translate(543.306641 0)"/>
     <use xlink:href="#DejaVuSans-72" transform="translate(575.09375 0)"/>
     <use xlink:href="#DejaVuSans-65" transform="translate(613.957031 0)"/>
     <use xlink:href="#DejaVuSans-67" transform="translate(675.480469 0)"/>
     <use xlink:href="#DejaVuSans-69" transform="translate(738.957031 0)"/>
     <use xlink:href="#DejaVuSans-6f" transform="translate(766.740234 0)"/>
     <use xlink:href="#DejaVuSans-6e" transform="translate(827.921875 0)"/>
     <use xlink:href="#DejaVuSans-20" transform="translate(891.300781 0)"/>
     <use xlink:href="#DejaVuSans-61" transform="translate(923.087891 0)"/>
     <use xlink:href="#DejaVuSans-6d" transform="translate(984.367188 0)"/>
     <use xlink:href="#DejaVuSans-70" transform="translate(1081.779297 0)"/>
     <use xlink:href="#DejaVuSans-6c" transform="translate(1145.255859 0)"/>
     <use xlink:href="#DejaVuSans-69" transform="translate(1173.039062 0)"/>
     <use xlink:href="#DejaVuSans-66" transform="translate(1200.822266 0)"/>
     <use xlink:href="#DejaVuSans-69" transform="translate(1236.027344 0)"/>
     <use xlink:href="#DejaVuSans-65" transform="translate(1263.810547 0)"/>
     <use xlink:href="#DejaVuSans-73" transform="translate(1325.333984 0)"/>
    </g>
    <!-- particle centerline separation -->
    <g style="fill: #0f172a" transform="translate(295.2975 45.554109) scale(0.11 -0.11)">
     <defs>
      <path id="DejaVuSans-74" d="M 1172 4494 
L 1172 3500 
L 2356 3500 
L 2356 3053 
L 1172 3053 
L 1172 1153 
Q 1172 725 1289 603 
Q 1406 481 1766 481 
L 2356 481 
L 2356 0 
L 1766 0 
Q 1100 0 847 248 
Q 594 497 594 1153 
L 594 3053 
L 172 3053 
L 172 3500 
L 594 3500 
L 594 4494 
L 1172 4494 
z
" transform="scale(0.015625)"/>
      <path id="DejaVuSans-63" d="M 3122 3366 
L 3122 2828 
Q 2878 2963 2633 3030 
Q 2388 3097 2138 3097 
Q 1578 3097 1268 2742 
Q 959 2388 959 1747 
Q 959 1106 1268 751 
Q 1578 397 2138 397 
Q 2388 397 2633 464 
Q 2878 531 3122 666 
L 3122 134 
Q 2881 22 2623 -34 
Q 2366 -91 2075 -91 
Q 1284 -91 818 406 
Q 353 903 353 1747 
Q 353 2603 823 3093 
Q 1294 3584 2113 3584 
Q 2378 3584 2631 3529 
Q 2884 3475 3122 3366 
z
" transform="scale(0.015625)"/>
     </defs>
     <use xlink:href="#DejaVuSans-70"/>
     <use xlink:href="#DejaVuSans-61" transform="translate(63.476562 0)"/>
     <use xlink:href="#DejaVuSans-72" transform="translate(124.755859 0)"/>
     <use xlink:href="#DejaVuSans-74" transform="translate(165.869141 0)"/>
     <use xlink:href="#DejaVuSans-69" transform="translate(205.078125 0)"/>
     <use xlink:href="#DejaVuSans-63" transform="translate(232.861328 0)"/>
     <use xlink:href="#DejaVuSans-6c" transform="translate(287.841797 0)"/>
     <use xlink:href="#DejaVuSans-65" transform="translate(315.625 0)"/>
     <use xlink:href="#DejaVuSans-20" transform="translate(377.148438 0)"/>
     <use xlink:href="#DejaVuSans-63" transform="translate(408.935547 0)"/>
     <use xlink:href="#DejaVuSans-65" transform="translate(463.916016 0)"/>
     <use xlink:href="#DejaVuSans-6e" transform="translate(525.439453 0)"/>
     <use xlink:href="#DejaVuSans-74" transform="translate(588.818359 0)"/>
     <use xlink:href="#DejaVuSans-65" transform="translate(628.027344 0)"/>
     <use xlink:href="#DejaVuSans-72" transform="translate(689.550781 0)"/>
     <use xlink:href="#DejaVuSans-6c" transform="translate(730.664062 0)"/>
     <use xlink:href="#DejaVuSans-69" transform="translate(758.447266 0)"/>
     <use xlink:href="#DejaVuSans-6e" transform="translate(786.230469 0)"/>
     <use xlink:href="#DejaVuSans-65" transform="translate(849.609375 0)"/>
     <use xlink:href="#DejaVuSans-20" transform="translate(911.132812 0)"/>
     <use xlink:href="#DejaVuSans-73" transform="translate(942.919922 0)"/>
     <use xlink:href="#DejaVuSans-65" transform="translate(995.019531 0)"/>
     <use xlink:href="#DejaVuSans-70" transform="translate(1056.542969 0)"/>
     <use xlink:href="#DejaVuSans-61" transform="translate(1120.019531 0)"/>
     <use xlink:href="#DejaVuSans-72" transform="translate(1181.298828 0)"/>
     <use xlink:href="#DejaVuSans-61" transform="translate(1222.412109 0)"/>
     <use xlink:href="#DejaVuSans-74" transform="translate(1283.691406 0)"/>
     <use xlink:href="#DejaVuSans-69" transform="translate(1322.900391 0)"/>
     <use xlink:href="#DejaVuSans-6f" transform="translate(1350.683594 0)"/>
     <use xlink:href="#DejaVuSans-6e" transform="translate(1411.865234 0)"/>
    </g>
   </g>
   <g id="text_5">
    <!-- Large-particle -->
    <g style="fill: #991b1b" transform="translate(614.03175 52.633547) scale(0.11 -0.11)">
     <defs>
      <path id="DejaVuSans-Bold-4c" d="M 588 4666 
L 1791 4666 
L 1791 909 
L 3903 909 
L 3903 0 
L 588 0 
L 588 4666 
z
" transform="scale(0.015625)"/>
     </defs>
     <use xlink:href="#DejaVuSans-Bold-4c"/>
     <use xlink:href="#DejaVuSans-Bold-61" transform="translate(63.720703 0)"/>
     <use xlink:href="#DejaVuSans-Bold-72" transform="translate(131.201172 0)"/>
     <use xlink:href="#DejaVuSans-Bold-67" transform="translate(180.517578 0)"/>
     <use xlink:href="#DejaVuSans-Bold-65" transform="translate(252.099609 0)"/>
     <use xlink:href="#DejaVuSans-Bold-2d" transform="translate(319.921875 0)"/>
     <use xlink:href="#DejaVuSans-Bold-70" transform="translate(361.425781 0)"/>
     <use xlink:href="#DejaVuSans-Bold-61" transform="translate(433.007812 0)"/>
     <use xlink:href="#DejaVuSans-Bold-72" transform="translate(500.488281 0)"/>
     <use xlink:href="#DejaVuSans-Bold-74" transform="translate(549.804688 0)"/>
     <use xlink:href="#DejaVuSans-Bold-69" transform="translate(597.607422 0)"/>
     <use xlink:href="#DejaVuSans-Bold-63" transform="translate(631.884766 0)"/>
     <use xlink:href="#DejaVuSans-Bold-6c" transform="translate(691.162109 0)"/>
     <use xlink:href="#DejaVuSans-Bold-65" transform="translate(725.439453 0)"/>
    </g>
    <!-- outlet -->
    <g style="fill: #991b1b" transform="translate(614.03175 65.037078) scale(0.11 -0.11)">
     <use xlink:href="#DejaVuSans-Bold-6f"/>
     <use xlink:href="#DejaVuSans-Bold-75" transform="translate(68.701172 0)"/>
     <use xlink:href="#DejaVuSans-Bold-74" transform="translate(139.892578 0)"/>
     <use xlink:href="#DejaVuSans-Bold-6c" transform="translate(187.695312 0)"/>
     <use xlink:href="#DejaVuSans-Bold-65" transform="translate(221.972656 0)"/>
     <use xlink:href="#DejaVuSans-Bold-74" transform="translate(289.794922 0)"/>
    </g>
   </g>
   <g id="text_6">
    <!-- Small-particle -->
    <g style="fill: #92400e" transform="translate(614.03175 279.476516) scale(0.11 -0.11)">
     <use xlink:href="#DejaVuSans-Bold-53"/>
     <use xlink:href="#DejaVuSans-Bold-6d" transform="translate(72.021484 0)"/>
     <use xlink:href="#DejaVuSans-Bold-61" transform="translate(176.220703 0)"/>
     <use xlink:href="#DejaVuSans-Bold-6c" transform="translate(243.701172 0)"/>
     <use xlink:href="#DejaVuSans-Bold-6c" transform="translate(277.978516 0)"/>
     <use xlink:href="#DejaVuSans-Bold-2d" transform="translate(312.255859 0)"/>
     <use xlink:href="#DejaVuSans-Bold-70" transform="translate(353.759766 0)"/>
     <use xlink:href="#DejaVuSans-Bold-61" transform="translate(425.341797 0)"/>
     <use xlink:href="#DejaVuSans-Bold-72" transform="translate(492.822266 0)"/>
     <use xlink:href="#DejaVuSans-Bold-74" transform="translate(542.138672 0)"/>
     <use xlink:href="#DejaVuSans-Bold-69" transform="translate(589.941406 0)"/>
     <use xlink:href="#DejaVuSans-Bold-63" transform="translate(624.21875 0)"/>
     <use xlink:href="#DejaVuSans-Bold-6c" transform="translate(683.496094 0)"/>
     <use xlink:href="#DejaVuSans-Bold-65" transform="translate(717.773438 0)"/>
    </g>
    <!-- outlet -->
    <g style="fill: #92400e" transform="translate(614.03175 291.794109) scale(0.11 -0.11)">
     <use xlink:href="#DejaVuSans-Bold-6f"/>
     <use xlink:href="#DejaVuSans-Bold-75" transform="translate(68.701172 0)"/>
     <use xlink:href="#DejaVuSans-Bold-74" transform="translate(139.892578 0)"/>
     <use xlink:href="#DejaVuSans-Bold-6c" transform="translate(187.695312 0)"/>
     <use xlink:href="#DejaVuSans-Bold-65" transform="translate(221.972656 0)"/>
     <use xlink:href="#DejaVuSans-Bold-74" transform="translate(289.794922 0)"/>
    </g>
   </g>
   <g id="text_7">
    <!-- Conceptual schematic only - final outlet mapping depends on channel geometry and flow rates. -->
    <g style="fill: #475569" transform="translate(115.376766 319.608281) scale(0.09 -0.09)">
     <defs>
      <path id="DejaVuSans-43" d="M 4122 4306 
L 4122 3641 
Q 3803 3938 3442 4084 
Q 3081 4231 2675 4231 
Q 1875 4231 1450 3742 
Q 1025 3253 1025 2328 
Q 1025 1406 1450 917 
Q 1875 428 2675 428 
Q 3081 428 3442 575 
Q 3803 722 4122 1019 
L 4122 359 
Q 3791 134 3420 21 
Q 3050 -91 2638 -91 
Q 1578 -91 968 557 
Q 359 1206 359 2328 
Q 359 3453 968 4101 
Q 1578 4750 2638 4750 
Q 3056 4750 3426 4639 
Q 3797 4528 4122 4306 
z
" transform="scale(0.015625)"/>
      <path id="DejaVuSans-75" d="M 544 1381 
L 544 3500 
L 1119 3500 
L 1119 1403 
Q 1119 906 1312 657 
Q 1506 409 1894 409 
Q 2359 409 2629 706 
Q 2900 1003 2900 1516 
L 2900 3500 
L 3475 3500 
L 3475 0 
L 2900 0 
L 2900 538 
Q 2691 219 2414 64 
Q 2138 -91 1772 -91 
Q 1169 -91 856 284 
Q 544 659 544 1381 
z
M 1991 3584 
L 1991 3584 
z
" transform="scale(0.015625)"/>
      <path id="DejaVuSans-68" d="M 3513 2113 
L 3513 0 
L 2938 0 
L 2938 2094 
Q 2938 2591 2744 2837 
Q 2550 3084 2163 3084 
Q 1697 3084 1428 2787 
Q 1159 2491 1159 1978 
L 1159 0 
L 581 0 
L 581 4863 
L 1159 4863 
L 1159 2956 
Q 1366 3272 1645 3428 
Q 1925 3584 2291 3584 
Q 2894 3584 3203 3211 
Q 3513 2838 3513 2113 
z
" transform="scale(0.015625)"/>
      <path id="DejaVuSans-79" d="M 2059 -325 
Q 1816 -950 1584 -1140 
Q 1353 -1331 966 -1331 
L 506 -1331 
L 506 -850 
L 844 -850 
Q 1081 -850 1212 -737 
Q 1344 -625 1503 -206 
L 1606 56 
L 191 3500 
L 800 3500 
L 1894 763 
L 2988 3500 
L 3597 3500 
L 2059 -325 
z
" transform="scale(0.015625)"/>
      <path id="DejaVuSans-2d" d="M 313 2009 
L 1997 2009 
L 1997 1497 
L 313 1497 
L 313 2009 
z
" transform="scale(0.015625)"/>
      <path id="DejaVuSans-77" d="M 269 3500 
L 844 3500 
L 1563 769 
L 2278 3500 
L 2956 3500 
L 3675 769 
L 4391 3500 
L 4966 3500 
L 4050 0 
L 3372 0 
L 2619 2869 
L 1863 0 
L 1184 0 
L 269 3500 
z
" transform="scale(0.015625)"/>
      <path id="DejaVuSans-2e" d="M 684 794 
L 1344 794 
L 1344 0 
L 684 0 
L 684 794 
z
" transform="scale(0.015625)"/>
     </defs>
     <use xlink:href="#DejaVuSans-43"/>
     <use xlink:href="#DejaVuSans-6f" transform="translate(69.824219 0)"/>
     <use xlink:href="#DejaVuSans-6e" transform="translate(131.005859 0)"/>
     <use xlink:href="#DejaVuSans-63" transform="translate(194.384766 0)"/>
     <use xlink:href="#DejaVuSans-65" transform="translate(249.365234 0)"/>
     <use xlink:href="#DejaVuSans-70" transform="translate(310.888672 0)"/>
     <use xlink:href="#DejaVuSans-74" transform="translate(374.365234 0)"/>
     <use xlink:href="#DejaVuSans-75" transform="translate(413.574219 0)"/>
     <use xlink:href="#DejaVuSans-61" transform="translate(476.953125 0)"/>
     <use xlink:href="#DejaVuSans-6c" transform="translate(538.232422 0)"/>
     <use xlink:href="#DejaVuSans-20" transform="translate(566.015625 0)"/>
     <use xlink:href="#DejaVuSans-73" transform="translate(597.802734 0)"/>
     <use xlink:href="#DejaVuSans-63" transform="translate(649.902344 0)"/>
     <use xlink:href="#DejaVuSans-68" transform="translate(704.882812 0)"/>
     <use xlink:href="#DejaVuSans-65" transform="translate(768.261719 0)"/>
     <use xlink:href="#DejaVuSans-6d" transform="translate(829.785156 0)"/>
     <use xlink:href="#DejaVuSans-61" transform="translate(927.197266 0)"/>
     <use xlink:href="#DejaVuSans-74" transform="translate(988.476562 0)"/>
     <use xlink:href="#DejaVuSans-69" transform="translate(1027.685547 0)"/>
     <use xlink:href="#DejaVuSans-63" transform="translate(1055.46875 0)"/>
     <use xlink:href="#DejaVuSans-20" transform="translate(1110.449219 0)"/>
     <use xlink:href="#DejaVuSans-6f" transform="translate(1142.236328 0)"/>
     <use xlink:href="#DejaVuSans-6e" transform="translate(1203.417969 0)"/>
     <use xlink:href="#DejaVuSans-6c" transform="translate(1266.796875 0)"/>
     <use xlink:href="#DejaVuSans-79" transform="translate(1294.580078 0)"/>
     <use xlink:href="#DejaVuSans-20" transform="translate(1353.759766 0)"/>
     <use xlink:href="#DejaVuSans-2d" transform="translate(1385.546875 0)"/>
     <use xlink:href="#DejaVuSans-20" transform="translate(1421.630859 0)"/>
     <use xlink:href="#DejaVuSans-66" transform="translate(1453.417969 0)"/>
     <use xlink:href="#DejaVuSans-69" transform="translate(1488.623047 0)"/>
     <use xlink:href="#DejaVuSans-6e" transform="translate(1516.40625 0)"/>
     <use xlink:href="#DejaVuSans-61" transform="translate(1579.785156 0)"/>
     <use xlink:href="#DejaVuSans-6c" transform="translate(1641.064453 0)"/>
     <use xlink:href="#DejaVuSans-20" transform="translate(1668.847656 0)"/>
     <use xlink:href="#DejaVuSans-6f" transform="translate(1700.634766 0)"/>
     <use xlink:href="#DejaVuSans-75" transform="translate(1761.816406 0)"/>
     <use xlink:href="#DejaVuSans-74" transform="translate(1825.195312 0)"/>
     <use xlink:href="#DejaVuSans-6c" transform="translate(1864.404297 0)"/>
     <use xlink:href="#DejaVuSans-65" transform="translate(1892.1875 0)"/>
     <use xlink:href="#DejaVuSans-74" transform="translate(1953.710938 0)"/>
     <use xlink:href="#DejaVuSans-20" transform="translate(1992.919922 0)"/>
     <use xlink:href="#DejaVuSans-6d" transform="translate(2024.707031 0)"/>
     <use xlink:href="#DejaVuSans-61" transform="translate(2122.119141 0)"/>
     <use xlink:href="#DejaVuSans-70" transform="translate(2183.398438 0)"/>
     <use xlink:href="#DejaVuSans-70" transform="translate(2246.875 0)"/>
     <use xlink:href="#DejaVuSans-69" transform="translate(2310.351562 0)"/>
     <use xlink:href="#DejaVuSans-6e" transform="translate(2338.134766 0)"/>
     <use xlink:href="#DejaVuSans-67" transform="translate(2401.513672 0)"/>
     <use xlink:href="#DejaVuSans-20" transform="translate(2464.990234 0)"/>
     <use xlink:href="#DejaVuSans-64" transform="translate(2496.777344 0)"/>
     <use xlink:href="#DejaVuSans-65" transform="translate(2560.253906 0)"/>
     <use xlink:href="#DejaVuSans-70" transform="translate(2621.777344 0)"/>
     <use xlink:href="#DejaVuSans-65" transform="translate(2685.253906 0)"/>
     <use xlink:href="#DejaVuSans-6e" transform="translate(2746.777344 0)"/>
     <use xlink:href="#DejaVuSans-64" transform="translate(2810.15625 0)"/>
     <use xlink:href="#DejaVuSans-73" transform="translate(2873.632812 0)"/>
     <use xlink:href="#DejaVuSans-20" transform="translate(2925.732422 0)"/>
     <use xlink:href="#DejaVuSans-6f" transform="translate(2957.519531 0)"/>
     <use xlink:href="#DejaVuSans-6e" transform="translate(3018.701172 0)"/>
     <use xlink:href="#DejaVuSans-20" transform="translate(3082.080078 0)"/>
     <use xlink:href="#DejaVuSans-63" transform="translate(3113.867188 0)"/>
     <use xlink:href="#DejaVuSans-68" transform="translate(3168.847656 0)"/>
     <use xlink:href="#DejaVuSans-61" transform="translate(3232.226562 0)"/>
     <use xlink:href="#DejaVuSans-6e" transform="translate(3293.505859 0)"/>
     <use xlink:href="#DejaVuSans-6e" transform="translate(3356.884766 0)"/>
     <use xlink:href="#DejaVuSans-65" transform="translate(3420.263672 0)"/>
     <use xlink:href="#DejaVuSans-6c" transform="translate(3481.787109 0)"/>
     <use xlink:href="#DejaVuSans-20" transform="translate(3509.570312 0)"/>
     <use xlink:href="#DejaVuSans-67" transform="translate(3541.357422 0)"/>
     <use xlink:href="#DejaVuSans-65" transform="translate(3604.833984 0)"/>
     <use xlink:href="#DejaVuSans-6f" transform="translate(3666.357422 0)"/>
     <use xlink:href="#DejaVuSans-6d" transform="translate(3727.539062 0)"/>
     <use xlink:href="#DejaVuSans-65" transform="translate(3824.951172 0)"/>
     <use xlink:href="#DejaVuSans-74" transform="translate(3886.474609 0)"/>
     <use xlink:href="#DejaVuSans-72" transform="translate(3925.683594 0)"/>
     <use xlink:href="#DejaVuSans-79" transform="translate(3966.796875 0)"/>
     <use xlink:href="#DejaVuSans-20" transform="translate(4025.976562 0)"/>
     <use xlink:href="#DejaVuSans-61" transform="translate(4057.763672 0)"/>
     <use xlink:href="#DejaVuSans-6e" transform="translate(4119.042969 0)"/>
     <use xlink:href="#DejaVuSans-64" transform="translate(4182.421875 0)"/>
     <use xlink:href="#DejaVuSans-20" transform="translate(4245.898438 0)"/>
     <use xlink:href="#DejaVuSans-66" transform="translate(4277.685547 0)"/>
     <use xlink:href="#DejaVuSans-6c" transform="translate(4312.890625 0)"/>
     <use xlink:href="#DejaVuSans-6f" transform="translate(4340.673828 0)"/>
     <use xlink:href="#DejaVuSans-77" transform="translate(4401.855469 0)"/>
     <use xlink:href="#DejaVuSans-20" transform="translate(4483.642578 0)"/>
     <use xlink:href="#DejaVuSans-72" transform="translate(4515.429688 0)"/>
     <use xlink:href="#DejaVuSans-61" transform="translate(4556.542969 0)"/>
     <use xlink:href="#DejaVuSans-74" transform="translate(4617.822266 0)"/>
     <use xlink:href="#DejaVuSans-65" transform="translate(4657.03125 0)"/>
     <use xlink:href="#DejaVuSans-73" transform="translate(4718.554688 0)"/>
     <use xlink:href="#DejaVuSans-2e" transform="translate(4770.654297 0)"/>
    </g>
   </g>
  </g>
 </g>
 <defs>
  <clipPath id="pc6c9783267">
   <rect x="7.2" y="7.2" width="642.15" height="324"/>
  </clipPath>
 </defs>
</svg>
